name C:\Users\u0101727\Documents\MyRepositories\paper-ad\predictivesimulations_2d/Results/PredSim_2D/IK_c21.mot
datacolumns 11
datarows 43
range 0.00000000 0.40293048
endheader
time	pelvis_tilt	pelvis_tx	pelvis_ty	hip_flexion_l	hip_flexion_r	knee_angle_l	knee_angle_r	ankle_angle_l	ankle_angle_r	lumbar_extension	
          0.00000000	        -15.08730656	          0.00000000	          0.88370141	          0.90907458	         38.02484117	        -16.22959669	        -10.56963578	          5.77976035	         13.83600363	          9.57856413	
          0.00959358	        -15.04928158	          0.01477777	          0.88291654	          0.81549538	         37.54001101	        -17.72343506	         -9.96396509	          4.57896792	         13.38762056	          9.67544684	
          0.01918717	        -15.00020470	          0.02981895	          0.88208090	          0.80065364	         36.95996264	        -19.38474873	         -9.64427198	          3.27429534	         12.88715533	          9.78536441	
          0.02878075	        -14.94263298	          0.04510648	          0.88121788	          0.87178571	         36.21663717	        -21.21040139	         -9.73108318	          1.84569837	         12.33254568	          9.91228930	
          0.03837433	        -14.88477643	          0.06045452	          0.88045430	          1.03353156	         35.35318925	        -23.18181540	        -10.04471862	          0.37855904	         11.76312402	         10.04679405	
          0.04796791	        -14.83760753	          0.07552244	          0.88001944	          1.31274085	         34.49479717	        -25.20660666	        -10.32427389	         -0.90547355	         11.21282415	         10.16563676	
          0.05756150	        -14.80969067	          0.09006316	          0.88017474	          1.73767127	         33.67871818	        -27.14459701	        -10.58189042	         -1.90836661	         10.68152397	         10.25490143	
          0.06715508	        -14.80337278	          0.10401364	          0.88107592	          2.30424379	         32.90742076	        -28.93313411	        -10.81244863	         -2.65951001	         10.18387437	         10.31344488	
          0.07674866	        -14.81396882	          0.11745706	          0.88268234	          2.99569663	         32.16238787	        -30.59289494	        -11.00396160	         -3.16833487	          9.73616548	         10.34740967	
          0.08634224	        -14.83488732	          0.13051761	          0.88478443	          3.79148878	         31.42251471	        -32.15298153	        -11.14752513	         -3.44758750	          9.34988994	         10.36382480	
          0.09593583	        -14.86076192	          0.14330277	          0.88714975	          4.67605275	         30.67100598	        -33.63098554	        -11.23634521	         -3.51283411	          9.03132431	         10.36800793	
          0.10552941	        -14.88815251	          0.15588682	          0.88959563	          5.63735095	         29.89841435	        -35.03539169	        -11.26851085	         -3.37909841	          8.78209276	         10.36315792	
          0.11512299	        -14.91516481	          0.16831674	          0.89199847	          6.66637104	         29.10021120	        -36.36752202	        -11.24446096	         -3.06268296	          8.60117394	         10.35103430	
          0.12471658	        -14.94083773	          0.18062259	          0.89427906	          7.75571069	         28.27484987	        -37.62425512	        -11.16619611	         -2.58033397	          8.48593647	         10.33264735	
          0.13431016	        -14.96468268	          0.19282469	          0.89638698	          8.89918636	         27.42270225	        -38.80071486	        -11.03719573	         -1.94892225	          8.43264454	         10.30861274	
          0.14390374	        -14.98643325	          0.20493810	          0.89828978	         10.09125073	         26.54541660	        -39.89080867	        -10.86230124	         -1.18539762	          8.43676371	         10.27938106	
          0.15349732	        -15.00591866	          0.21697525	          0.89996648	         11.32654619	         25.64558418	        -40.88776189	        -10.64754292	         -0.30693074	          8.49315976	         10.24535886	
          0.16309091	        -15.02301561	          0.22894702	          0.90140445	         12.59965722	         24.72651089	        -41.78439029	        -10.39992811	          0.66908496	          8.59626137	         10.20696061	
          0.17268449	        -15.03763882	          0.24086295	          0.90259876	         13.90518639	         23.79214604	        -42.57308094	        -10.12744649	          1.72507891	          8.74025939	         10.16458405	
          0.18227807	        -15.04977028	          0.25273061	          0.90355268	         15.23815924	         22.84694927	        -43.24567760	         -9.83795343	          2.84338079	          8.91929450	         10.11854202	
          0.19187166	        -15.05953081	          0.26455731	          0.90427676	         16.59261274	         21.89483278	        -43.79468699	         -9.53852066	          4.00617746	          9.12691052	         10.06930685	
          0.20146524	        -15.06708541	          0.27634937	          0.90478787	         17.96268111	         20.93992940	        -44.21244295	         -9.23667389	          5.19561950	          9.35544130	         10.01731590	
          0.21105882	        -15.07257429	          0.28811229	          0.90510672	         19.34290534	         19.98682216	        -44.49111791	         -8.94026144	          6.39388778	          9.59681020	          9.96290664	
          0.22065240	        -15.07614224	          0.29985213	          0.90525465	         20.72676545	         19.04030996	        -44.62379338	         -8.65768417	          7.58318267	          9.84303873	          9.90646237	
          0.23024599	        -15.07800645	          0.31157590	          0.90525191	         22.10737758	         18.10367721	        -44.60479138	         -8.39461441	          8.74583166	         10.08675855	          9.84850834	
          0.23983957	        -15.07848257	          0.32329201	          0.90511655	         23.47779667	         17.17773951	        -44.43011262	         -8.15239479	          9.86445965	         10.32129512	          9.78979302	
          0.24943315	        -15.07785354	          0.33500920	          0.90486414	         24.83020691	         16.26388338	        -44.09766417	         -7.93375176	         10.92232965	         10.53984148	          9.73104696	
          0.25902673	        -15.07636335	          0.34673569	          0.90450780	         26.15662571	         15.36427621	        -43.60651205	         -7.74230600	         11.90399405	         10.73628099	          9.67289113	
          0.26862032	        -15.07425303	          0.35848062	          0.90405826	         27.44819077	         14.48048423	        -42.95979615	         -7.58111350	         12.79604676	         10.90594461	          9.61606769	
          0.27821390	        -15.07177951	          0.37025243	          0.90352472	         28.69691775	         13.61345394	        -42.16203878	         -7.45221596	         13.58825459	         11.04584715	          9.56126488	
          0.28780748	        -15.06920600	          0.38205776	          0.90291532	         29.89658672	         12.76404829	        -41.21761630	         -7.35671548	         14.27452938	         11.15482676	          9.50897292	
          0.29740107	        -15.06677096	          0.39390289	          0.90223669	         31.04153889	         11.93296660	        -40.13318623	         -7.29624295	         14.85327414	         11.23359407	          9.45962929	
          0.30699465	        -15.06469548	          0.40579220	          0.90149425	         32.12881098	         11.12053106	        -38.91424984	         -7.27171034	         15.32731464	         11.28495237	          9.41342515	
          0.31658823	        -15.06319109	          0.41772928	          0.90069186	         33.15703866	         10.32662697	        -37.56580958	         -7.28351278	         15.70292992	         11.31335649	          9.37042671	
          0.32618181	        -15.06247662	          0.42971749	          0.89983153	         34.12563198	          9.55100102	        -36.09324366	         -7.33165675	         15.98848841	         11.32412896	          9.33061230	
          0.33577540	        -15.06283391	          0.44176132	          0.89891345	         35.03310752	          8.79304573	        -34.50403615	         -7.41557861	         16.19313458	         11.32254480	          9.29405434	
          0.34536898	        -15.06465521	          0.45386723	          0.89793652	         35.87597534	          8.05172035	        -32.80585928	         -7.53422477	         16.32598780	         11.31221589	          9.26106125	
          0.35496256	        -15.06826517	          0.46604333	          0.89689959	         36.64965514	          7.32666489	        -31.01019298	         -7.68785494	         16.39583014	         11.29398143	          9.23201823	
          0.36455615	        -15.07373524	          0.47830158	          0.89580529	         37.34743870	          6.61876455	        -29.14329242	         -7.88010453	         16.41080464	         11.26625670	          9.20751362	
          0.37414973	        -15.08109678	          0.49066019	          0.89466598	         37.95632753	          5.93004897	        -27.23938537	         -8.11720931	         16.37819668	         11.22302607	          9.18885236	
          0.38374331	        -15.09037409	          0.50314065	          0.89350332	         38.46052192	          5.26367012	        -25.33067425	         -8.40628118	         16.30440167	         11.15189006	          9.17775476	
          0.39333689	        -15.10124894	          0.51576172	          0.89233987	         38.85059537	          4.62404312	        -23.44499406	         -8.75580285	         16.19481011	         11.03656689	          9.17540619	
          0.40293048	        -15.11292560	          0.52853798	          0.89119360	         39.12643760	          4.01641111	        -21.60421957	         -9.17559966	         16.05354907	         10.86053584	          9.18221215	
